<?xml version="1.0" encoding="utf-8"?>
<!-- Generator: Adobe Illustrator 16.0.0, SVG Export Plug-In . SVG Version: 6.00 Build 0)  -->
<!DOCTYPE svg PUBLIC "-//W3C//DTD SVG 1.1//EN" "http://www.w3.org/Graphics/SVG/1.1/DTD/svg11.dtd">
<svg version="1.1" id="Capa_1" xmlns="http://www.w3.org/2000/svg" xmlns:xlink="http://www.w3.org/1999/xlink" x="0px" y="0px"
	 width="170px" height="170px" viewBox="0 0 170 170" enable-background="new 0 0 170 170" xml:space="preserve">
<g>
	<g>
		<path fill="#424549" d="M23.481,107.348h17.031c8.588,0,10.786,5.367,10.786,8.979c0,5.027-2.832,6.441-4.295,7.176
			c4.295,1.607,5.417,5.024,5.417,8.489c0,2.782-1.172,5.416-3.025,7.222c-2.001,1.953-3.904,3.174-11.078,3.174H23.481V107.348z
			 M30.508,121.06h8.589c2.88,0,5.174-1.121,5.174-3.903c0-2.88-2.05-3.758-5.369-3.758h-8.394V121.06z M30.508,136.335h8.979
			c3.563,0,5.612-1.562,5.612-5.125c0-3.072-2.635-4.244-5.271-4.244h-9.321V136.335z"/>
		<path fill="#424549" d="M81.064,143.069c-6.978,0-13.274-4.295-13.274-13.666c0-9.366,6.296-13.664,13.274-13.664
			c6.98,0,13.272,4.298,13.272,13.664C94.337,138.774,88.045,143.069,81.064,143.069z M81.064,121.499
			c-5.271,0-6.246,4.588-6.246,7.904c0,3.32,0.975,7.906,6.246,7.906c5.271,0,6.246-4.586,6.246-7.906
			C87.311,126.087,86.336,121.499,81.064,121.499z"/>
		<path fill="#424549" d="M97.852,116.425h6.538v4.489h0.099c1.415-2.635,2.978-5.175,7.124-5.175c0.439,0,0.879,0.05,1.318,0.099
			v6.93c-0.587-0.095-1.318-0.095-1.95-0.095c-5.32,0-6.296,3.317-6.296,6.197v13.517h-6.833V116.425z"/>
		<path fill="#424549" d="M139.136,142.387h-6.831v-15.762c0-1.904-0.098-5.126-4.44-5.126c-3.026,0-5.368,2.051-5.368,6.004v14.884
			h-6.833v-25.962h6.539v3.807h0.099c0.928-1.562,2.879-4.492,7.808-4.492c5.075,0,9.027,2.98,9.027,8.689V142.387z"/>
	</g>
</g>
<circle fill="#424549" cx="74.754" cy="110.665" r="4.067"/>
<path fill="#424549" d="M91.835,110.665c0,2.245-1.822,4.068-4.069,4.068c-2.245,0-4.064-1.823-4.064-4.068s1.819-4.065,4.064-4.065
	C90.013,106.6,91.835,108.42,91.835,110.665z"/>
<g>
	<path fill="#424549" d="M63.968,116.425v37.521h-6.832v-37.521H63.968z"/>
</g>
<circle fill="#424549" cx="60.601" cy="110.665" r="4.067"/>
<circle fill="#424549" cx="68.063" cy="45.78" r="44.386"/>
<g>
	<g>
		<path fill="#424549" d="M24.057,167.526v-5.194h1.888c0.424,0,0.796,0.066,1.117,0.205c0.319,0.135,0.586,0.322,0.801,0.556
			c0.215,0.233,0.376,0.508,0.483,0.823c0.108,0.314,0.162,0.65,0.162,1.007c0,0.393-0.059,0.753-0.179,1.071
			c-0.12,0.322-0.292,0.594-0.516,0.819c-0.225,0.228-0.494,0.403-0.809,0.527c-0.315,0.125-0.667,0.186-1.058,0.186H24.057z
			 M27.49,164.923c0-0.249-0.034-0.477-0.103-0.69c-0.069-0.207-0.169-0.389-0.3-0.54c-0.132-0.15-0.294-0.27-0.487-0.352
			c-0.192-0.083-0.411-0.123-0.655-0.123h-0.878v3.425h0.878c0.249,0,0.47-0.044,0.663-0.133c0.193-0.087,0.354-0.21,0.483-0.36
			c0.129-0.155,0.228-0.339,0.297-0.544C27.456,165.395,27.49,165.167,27.49,164.923z"/>
		<path fill="#424549" d="M34.07,167.526v-5.188h1.01v5.188H34.07z"/>
		<path fill="#424549" d="M44.026,163.692c-0.035-0.034-0.097-0.08-0.188-0.141c-0.089-0.059-0.2-0.114-0.329-0.171
			s-0.27-0.104-0.42-0.141c-0.152-0.041-0.306-0.059-0.461-0.059c-0.278,0-0.486,0.048-0.622,0.15
			c-0.137,0.104-0.205,0.248-0.205,0.434c0,0.106,0.026,0.197,0.077,0.268c0.052,0.07,0.125,0.131,0.224,0.186
			c0.098,0.054,0.22,0.103,0.369,0.145c0.148,0.046,0.321,0.093,0.516,0.141c0.254,0.068,0.484,0.142,0.691,0.222
			c0.208,0.079,0.383,0.176,0.528,0.292c0.143,0.115,0.254,0.258,0.333,0.421c0.078,0.165,0.117,0.364,0.117,0.604
			c0,0.277-0.052,0.515-0.157,0.715c-0.105,0.197-0.245,0.355-0.42,0.479c-0.176,0.123-0.381,0.21-0.616,0.266
			c-0.233,0.057-0.478,0.085-0.732,0.085c-0.39,0-0.775-0.061-1.157-0.175c-0.38-0.119-0.722-0.284-1.025-0.5l0.447-0.869
			c0.043,0.04,0.123,0.103,0.237,0.171c0.115,0.07,0.251,0.143,0.407,0.211c0.156,0.073,0.329,0.133,0.52,0.18
			c0.191,0.05,0.386,0.074,0.585,0.074c0.557,0,0.835-0.177,0.835-0.533c0-0.119-0.032-0.216-0.096-0.294
			c-0.063-0.079-0.153-0.146-0.271-0.206c-0.117-0.058-0.259-0.112-0.424-0.158c-0.166-0.049-0.352-0.1-0.557-0.153
			c-0.249-0.07-0.465-0.146-0.648-0.226c-0.183-0.081-0.336-0.175-0.457-0.282c-0.123-0.106-0.213-0.233-0.274-0.38
			c-0.061-0.147-0.092-0.32-0.092-0.52c0-0.267,0.048-0.498,0.147-0.703c0.097-0.203,0.233-0.376,0.405-0.514
			c0.173-0.137,0.375-0.237,0.604-0.31c0.229-0.07,0.476-0.109,0.739-0.109c0.366,0,0.703,0.059,1.011,0.178
			c0.307,0.112,0.576,0.248,0.805,0.404L44.026,163.692z"/>
		<path fill="#424549" d="M53.79,166.643v0.884h-3.609v-5.194h3.543v0.886h-2.533v1.252h2.189v0.819h-2.189v1.354H53.79z"/>
		<path fill="#424549" d="M60.371,164.196v3.33h-1.01v-5.194h0.783l2.708,3.408v-3.402h1.011v5.188h-0.82L60.371,164.196z
			 M62.069,161.768c-0.113,0-0.21-0.018-0.293-0.05c-0.082-0.036-0.16-0.074-0.23-0.115c-0.07-0.042-0.141-0.08-0.211-0.112
			c-0.071-0.036-0.146-0.055-0.224-0.055c-0.083,0-0.147,0.019-0.194,0.055c-0.046,0.032-0.082,0.072-0.105,0.116
			c-0.025,0.045-0.04,0.083-0.045,0.121c-0.003,0.036-0.007,0.057-0.007,0.061h-0.542c0-0.042,0.014-0.117,0.044-0.222
			c0.029-0.106,0.077-0.211,0.143-0.315c0.066-0.104,0.153-0.195,0.264-0.278c0.11-0.08,0.245-0.121,0.406-0.121
			c0.112,0,0.209,0.019,0.289,0.055c0.081,0.036,0.156,0.076,0.227,0.119c0.071,0.04,0.142,0.08,0.213,0.116
			c0.07,0.034,0.15,0.055,0.237,0.055c0.089,0,0.158-0.019,0.208-0.053c0.052-0.032,0.091-0.072,0.119-0.116
			c0.026-0.043,0.044-0.085,0.05-0.123c0.007-0.04,0.012-0.064,0.012-0.072h0.542c0,0.032-0.015,0.101-0.044,0.203
			c-0.028,0.101-0.079,0.207-0.15,0.314c-0.07,0.108-0.164,0.205-0.278,0.289C62.383,161.724,62.24,161.768,62.069,161.768z"/>
		<path fill="#424549" d="M71.864,167.564c-0.367,0-0.701-0.074-1.003-0.224c-0.302-0.148-0.562-0.346-0.78-0.592
			c-0.216-0.247-0.383-0.529-0.5-0.848c-0.118-0.318-0.176-0.642-0.176-0.973c0-0.346,0.062-0.678,0.187-0.996
			c0.123-0.316,0.298-0.596,0.519-0.84c0.222-0.245,0.485-0.438,0.788-0.584c0.301-0.143,0.631-0.218,0.987-0.218
			c0.366,0,0.701,0.081,1.003,0.234c0.302,0.152,0.56,0.354,0.775,0.604c0.216,0.25,0.381,0.531,0.499,0.848
			c0.117,0.318,0.175,0.643,0.175,0.969c0,0.347-0.062,0.675-0.187,0.99c-0.126,0.314-0.296,0.595-0.516,0.836
			c-0.22,0.239-0.48,0.433-0.784,0.576C72.549,167.492,72.22,167.564,71.864,167.564z M70.42,164.929c0,0.224,0.033,0.441,0.1,0.652
			c0.065,0.21,0.161,0.393,0.286,0.554c0.125,0.163,0.277,0.292,0.458,0.389c0.18,0.099,0.385,0.147,0.615,0.147
			c0.233,0,0.44-0.051,0.619-0.149c0.177-0.101,0.327-0.233,0.449-0.398c0.122-0.165,0.215-0.353,0.278-0.562
			c0.063-0.206,0.095-0.419,0.095-0.633c0-0.223-0.033-0.442-0.102-0.652c-0.068-0.207-0.165-0.395-0.289-0.556
			c-0.124-0.161-0.276-0.287-0.455-0.384c-0.178-0.095-0.379-0.142-0.604-0.142c-0.234,0-0.44,0.049-0.618,0.151
			c-0.178,0.097-0.329,0.229-0.453,0.395c-0.125,0.163-0.219,0.349-0.282,0.556C70.453,164.504,70.42,164.718,70.42,164.929z"/>
		<path fill="#424549" d="M87.396,164.196v3.33h-1.01v-5.194h0.782l2.708,3.408v-3.402h1.012v5.188h-0.819L87.396,164.196z"/>
		<path fill="#424549" d="M98.889,167.564c-0.365,0-0.701-0.074-1.004-0.224c-0.304-0.148-0.561-0.346-0.777-0.592
			c-0.219-0.247-0.386-0.529-0.502-0.848c-0.118-0.318-0.176-0.642-0.176-0.973c0-0.346,0.062-0.678,0.188-0.996
			c0.125-0.316,0.296-0.596,0.518-0.84c0.224-0.245,0.484-0.438,0.789-0.584c0.301-0.143,0.63-0.218,0.987-0.218
			c0.365,0,0.7,0.081,1.001,0.234c0.303,0.152,0.563,0.354,0.777,0.604c0.214,0.25,0.38,0.531,0.498,0.848
			c0.116,0.318,0.178,0.643,0.178,0.969c0,0.347-0.063,0.675-0.189,0.99c-0.123,0.314-0.294,0.595-0.515,0.836
			c-0.222,0.239-0.482,0.433-0.783,0.576C99.575,167.492,99.244,167.564,98.889,167.564z M97.446,164.929
			c0,0.224,0.034,0.441,0.099,0.652c0.066,0.21,0.161,0.393,0.285,0.554c0.125,0.163,0.277,0.292,0.458,0.389
			c0.181,0.099,0.387,0.147,0.616,0.147c0.232,0,0.441-0.051,0.618-0.149c0.18-0.101,0.329-0.233,0.449-0.398
			c0.124-0.165,0.216-0.353,0.279-0.562c0.063-0.206,0.094-0.419,0.094-0.633c0-0.223-0.033-0.442-0.104-0.652
			c-0.067-0.207-0.162-0.395-0.288-0.556c-0.123-0.161-0.274-0.287-0.453-0.384c-0.177-0.095-0.379-0.142-0.604-0.142
			c-0.233,0-0.439,0.049-0.617,0.151c-0.18,0.097-0.329,0.229-0.456,0.395c-0.124,0.163-0.218,0.349-0.282,0.556
			C97.479,164.504,97.446,164.718,97.446,164.929z"/>
		<path fill="#424549" d="M106.903,167.526v-5.194h2.3c0.239,0,0.46,0.048,0.661,0.148c0.206,0.101,0.379,0.231,0.523,0.395
			c0.147,0.163,0.261,0.351,0.346,0.559c0.081,0.205,0.123,0.414,0.123,0.626c0,0.336-0.083,0.64-0.252,0.918
			c-0.167,0.273-0.396,0.473-0.686,0.596l1.225,1.953h-1.142l-1.092-1.739h-0.994v1.739H106.903z M107.916,164.901h1.266
			c0.091,0,0.179-0.024,0.259-0.064c0.081-0.047,0.149-0.107,0.209-0.182c0.059-0.076,0.105-0.165,0.139-0.268
			c0.034-0.101,0.051-0.212,0.051-0.328c0-0.123-0.02-0.236-0.058-0.339c-0.039-0.103-0.092-0.188-0.156-0.266
			c-0.066-0.074-0.144-0.135-0.228-0.177c-0.086-0.038-0.171-0.061-0.26-0.061h-1.222V164.901z"/>
		<path fill="#424549" d="M116.597,167.526v-5.194h1.888c0.424,0,0.797,0.066,1.115,0.205c0.32,0.135,0.589,0.322,0.803,0.556
			s0.376,0.508,0.482,0.823c0.107,0.314,0.161,0.65,0.161,1.007c0,0.393-0.057,0.753-0.178,1.071
			c-0.122,0.322-0.293,0.594-0.519,0.819c-0.223,0.228-0.492,0.403-0.807,0.527c-0.314,0.125-0.668,0.186-1.059,0.186H116.597z
			 M120.028,164.923c0-0.249-0.034-0.477-0.104-0.69c-0.065-0.207-0.166-0.389-0.299-0.54c-0.131-0.15-0.294-0.27-0.486-0.352
			c-0.191-0.083-0.412-0.123-0.655-0.123h-0.879v3.425h0.879c0.248,0,0.469-0.044,0.663-0.133c0.193-0.087,0.354-0.21,0.484-0.36
			c0.127-0.155,0.228-0.339,0.293-0.544C119.994,165.395,120.028,165.167,120.028,164.923z"/>
		<path fill="#424549" d="M126.608,167.526v-5.188h1.012v5.188H126.608z"/>
		<path fill="#424549" d="M133.154,164.893c0-0.317,0.056-0.63,0.168-0.94c0.111-0.31,0.274-0.588,0.486-0.831
			c0.212-0.246,0.473-0.443,0.779-0.592c0.309-0.151,0.658-0.228,1.055-0.228c0.464,0,0.865,0.104,1.203,0.313
			c0.34,0.212,0.59,0.483,0.751,0.82l-0.775,0.535c-0.059-0.147-0.135-0.27-0.227-0.37s-0.194-0.18-0.305-0.238
			c-0.11-0.058-0.224-0.101-0.339-0.127c-0.117-0.027-0.23-0.04-0.337-0.04c-0.239,0-0.449,0.051-0.63,0.153
			c-0.183,0.103-0.331,0.235-0.452,0.398c-0.117,0.163-0.208,0.349-0.268,0.556c-0.063,0.208-0.094,0.415-0.094,0.62
			c0,0.228,0.036,0.447,0.107,0.66c0.071,0.212,0.17,0.399,0.297,0.563c0.133,0.161,0.287,0.292,0.467,0.389
			c0.181,0.095,0.378,0.145,0.594,0.145c0.111,0,0.226-0.016,0.344-0.044c0.116-0.03,0.23-0.077,0.341-0.14
			c0.107-0.062,0.21-0.145,0.303-0.245c0.093-0.099,0.171-0.222,0.228-0.36l0.827,0.475c-0.079,0.193-0.192,0.367-0.342,0.516
			c-0.146,0.149-0.317,0.276-0.508,0.377c-0.189,0.103-0.389,0.181-0.601,0.235c-0.21,0.055-0.415,0.078-0.622,0.078
			c-0.36,0-0.691-0.076-0.991-0.233c-0.302-0.157-0.558-0.358-0.775-0.609c-0.219-0.252-0.387-0.54-0.506-0.856
			C133.214,165.551,133.154,165.225,133.154,164.893z"/>
		<path fill="#424549" d="M145.225,167.564c-0.367,0-0.7-0.074-1.004-0.224c-0.301-0.148-0.563-0.346-0.777-0.592
			c-0.218-0.247-0.386-0.529-0.502-0.848c-0.117-0.318-0.177-0.642-0.177-0.973c0-0.346,0.063-0.678,0.187-0.996
			c0.125-0.316,0.299-0.596,0.521-0.84c0.223-0.245,0.484-0.438,0.786-0.584c0.304-0.143,0.633-0.218,0.989-0.218
			c0.365,0,0.699,0.081,1.003,0.234c0.303,0.152,0.561,0.354,0.778,0.604c0.212,0.25,0.377,0.531,0.495,0.848
			c0.116,0.318,0.175,0.643,0.175,0.969c0,0.347-0.062,0.675-0.185,0.99c-0.125,0.314-0.298,0.595-0.518,0.836
			c-0.22,0.239-0.48,0.433-0.782,0.576C145.91,167.492,145.582,167.564,145.225,167.564z M143.782,164.929
			c0,0.224,0.033,0.441,0.098,0.652c0.066,0.21,0.163,0.393,0.286,0.554c0.126,0.163,0.277,0.292,0.459,0.389
			c0.18,0.099,0.384,0.147,0.614,0.147c0.234,0,0.439-0.051,0.618-0.149c0.178-0.101,0.328-0.233,0.449-0.398
			c0.123-0.165,0.216-0.353,0.279-0.562c0.064-0.206,0.095-0.419,0.095-0.633c0-0.223-0.033-0.442-0.102-0.652
			c-0.068-0.207-0.165-0.395-0.289-0.556c-0.126-0.161-0.277-0.287-0.454-0.384c-0.179-0.095-0.38-0.142-0.605-0.142
			c-0.232,0-0.439,0.049-0.618,0.151c-0.177,0.097-0.329,0.229-0.451,0.395c-0.126,0.163-0.22,0.349-0.284,0.556
			C143.813,164.504,143.782,164.718,143.782,164.929z"/>
	</g>
</g>
</svg>
